DBRep_DrawableShape

CASCADE Topology V1, (c) Matra-Datavision
Locations 0
Curve2ds 46
1 0 0 1 0 
1 0 0 1 0 
1 42 0 0 -1 
1 0 0 0 1 
1 0 -3 1 0 
1 0 0 1 0 
1 0 0 0 -1 
1 0 0 0 1 
1 0 0 0 1 
1 0 0 1 0 
1 0 0 1 0 
1 0 42 1 0 
1 42 0 0 1 
1 0 0 1 0 
1 0 0 1 0 
1 0 0 1 0 
1 0 0 1 0 
1 0 0 1 0 
2 0 0 1 0 -0 1 11
1 0 0 1 0 
1 42 0 0 1 
1 0 3 1 0 
1 42 0 0 -1 
1 42 0 0 1 
1 0 0 0 1 
1 0 3 1 0 
1 0 -3 1 0 
1 0 42 1 0 
1 0 3 1 0 
1 0 3 1 0 
1 0 3 1 0 
2 0 0 1 0 -0 1 11
1 0 3 1 0 
1 0 3 1 0 
1 0 0 0 -1 
1 42 0 0 1 
1 6.2831853071795862 -0 0 1 
1 0 -0 0 1 
1 6.2831853071795862 -0 0 1 
1 0 -0 0 1 
1 6.2831853071795862 -0 0 1 
1 0 -0 0 1 
1 6.2831853071795862 -0 0 1 
1 0 -0 0 1 
1 6.2831853071795862 -0 0 1 
1 0 -0 0 1 
Curves 27
1 -21 -1.5 -21 0 0 1 
1 -21 -1.5 21 -0 1 0 
1 -21 1.5 -21 0 0 1 
1 -21 -1.5 -21 -0 1 0 
1 -21 -1.5 -21 1 0 -0 
1 21 -1.5 -21 0 0 1 
1 -21 -1.5 21 1 0 -0 
2 -15.5 -1.5 15.499999999999996 -0 1 0 1 0 0 0 0 -1 1.5
2 -15.499999999999996 -1.5 -15.5 -0 1 0 1 0 0 0 0 -1 1.5
2 15.499999999999996 -1.5 15.5 -0 1 0 1 0 0 0 0 -1 1.5
2 0 -1.5 0 0 1 0 1 0 0 0 0 -1 11
2 15.5 -1.5 -15.499999999999996 -0 1 0 1 0 0 0 0 -1 1.5
1 -21 1.5 21 1 0 -0 
1 21 -1.5 21 0 1 0 
1 -21 1.5 -21 1 0 -0 
1 21 1.5 -21 0 0 1 
2 15.499999999999996 1.5 15.5 -0 1 0 1 0 0 0 0 -1 1.5
2 -15.499999999999996 1.5 -15.5 -0 1 0 1 0 0 0 0 -1 1.5
2 0 1.5 0 0 1 0 1 0 0 0 0 -1 11
2 -15.5 1.5 15.499999999999996 -0 1 0 1 0 0 0 0 -1 1.5
2 15.5 1.5 -15.499999999999996 -0 1 0 1 0 0 0 0 -1 1.5
1 21 -1.5 -21 -0 1 0 
1 -14 -1.5 15.499999999999996 0 1 0 
1 -13.999999999999996 -1.5 -15.5 0 1 0 
1 16.999999999999996 -1.5 15.5 0 1 0 
1 11 -1.5 2.6942229581241772e-15 0 1 0 
1 17 -1.5 -15.499999999999996 0 1 0 
Polygon3D 0
PolygonOnTriangulations 0
Surfaces 13
1 -21 -1.5 -21 1 0 -0 0 0 1 0 -1 0 
1 -21 -1.5 -21 -0 1 0 0 0 1 1 0 -0 
1 -21 -1.5 21 0 0 1 1 0 -0 -0 1 0 
1 -21 1.5 -21 -0 1 0 0 0 1 1 0 -0 
1 -21 -1.5 -21 0 0 1 1 0 -0 -0 1 0 
1 21 -1.5 -21 1 0 -0 0 0 1 0 -1 0 
2 -15.5 -1.5 15.499999999999996 0 1 0 1 0 0 0 0 -1 1.5
2 -15.499999999999996 -1.5 -15.5 0 1 0 1 0 0 0 0 -1 1.5
2 15.499999999999996 -1.5 15.5 0 1 0 1 0 0 0 0 -1 1.5
2 0 -1.5 0 0 1 0 1 0 0 0 0 -1 11
1 0 -1.5 0 0 1 0 1 0 0 0 0 -1 
2 15.5 -1.5 -15.499999999999996 0 1 0 1 0 0 0 0 -1 1.5
1 0 1.5 0 0 1 0 1 0 0 0 0 -1 
Triangulations 0

TShapes 81
Ve
1e-07
-21 -1.5 21
0 0

0101101
*
Ve
1e-07
-21 -1.5 -21
0 0

0101101
*
Ed
 1e-07 1 1 0
1  1 0 0 42
2  1 1 0 0 42
2  2 2 0 0 42
0

0101000
-81 0 +80 0 *
Ve
1e-07
-21 1.5 21
0 0

0101101
*
Ed
 1e-07 1 1 0
1  2 0 0 3
2  3 1 0 0 3
2  4 3 0 0 3
0

0101000
-78 0 +81 0 *
Ve
1e-07
-21 1.5 -21
0 0

0101101
*
Ed
 1e-07 1 1 0
1  3 0 0 42
2  5 1 0 0 42
2  6 4 0 0 42
0

0101000
-78 0 +76 0 *
Ed
 1e-07 1 1 0
1  4 0 0 3
2  7 1 0 0 3
2  8 5 0 0 3
0

0101000
-76 0 +80 0 *
Wi

0101000
-79 0 -77 0 +75 0 +74 0 *
Fa
0  1e-07 1 0

0111000
+73 0 *
Ve
1e-07
21 -1.5 -21
0 0

0101101
*
Ed
 1e-07 1 1 0
1  5 0 0 42
2  9 2 0 0 42
2  10 5 0 0 42
0

0101000
-71 0 +80 0 *
Ve
1e-07
21 -1.5 21
0 0

0101101
*
Ed
 1e-07 1 1 0
1  6 0 0 42
2  11 6 0 0 42
2  12 2 0 0 42
0

0101000
-69 0 +71 0 *
Ed
 1e-07 1 1 0
1  7 0 0 42
2  13 2 0 0 42
2  14 3 0 0 42
0

0101000
-69 0 +81 0 *
Wi

0101000
-70 0 -68 0 +79 0 +67 0 *
Ve
1e-07
-14 -1.5 15.5
0 0

0101101
*
Ed
 1e-07 1 1 0
1  8 0 0 6.28318530717959
2  15 7 0 0 6.28318530717959
0

0101100
+65 0 -65 0 *
Wi

0101000
-64 0 *
Ve
1e-07
-14 -1.5 -15.5
0 0

0101101
*
Ed
 1e-07 1 1 0
1  9 0 0 6.28318530717959
2  16 8 0 0 6.28318530717959
0

0101100
+62 0 -62 0 *
Wi

0101000
-61 0 *
Ve
1e-07
17 -1.5 15.5
0 0

0101101
*
Ed
 1e-07 1 1 0
1  10 0 0 6.28318530717959
2  17 9 0 0 6.28318530717959
0

0101100
+59 0 -59 0 *
Wi

0101000
-58 0 *
Ve
1e-07
11 -1.5 2.69422295812418e-15
0 0

0101101
*
Ed
 1e-07 1 1 0
1  11 0 0 6.28318530717959
2  18 10 0 0 6.28318530717959
2  19 11 0 0 6.28318530717959
0

0101100
+56 0 -56 0 *
Wi

0101000
-55 0 *
Ve
1e-07
17 -1.5 -15.5
0 0

0101101
*
Ed
 1e-07 1 1 0
1  12 0 0 6.28318530717959
2  20 12 0 0 6.28318530717959
0

0101100
+53 0 -53 0 *
Wi

0101000
-52 0 *
Fa
0  1e-07 2 0

0111000
+66 0 +63 0 +60 0 +57 0 +54 0 +51 0 *
Ve
1e-07
21 1.5 21
0 0

0101101
*
Ed
 1e-07 1 1 0
1  13 0 0 42
2  21 4 0 0 42
2  22 3 0 0 42
0

0101000
-49 0 +78 0 *
Ed
 1e-07 1 1 0
1  14 0 0 3
2  23 6 0 0 3
2  24 3 0 0 3
0

0101000
-49 0 +69 0 *
Wi

0101000
-77 0 -48 0 +47 0 +67 0 *
Fa
0  1e-07 3 0

0101000
+46 0 *
Ve
1e-07
21 1.5 -21
0 0

0101101
*
Ed
 1e-07 1 1 0
1  15 0 0 42
2  25 4 0 0 42
2  26 5 0 0 42
0

0101000
-44 0 +76 0 *
Ed
 1e-07 1 1 0
1  16 0 0 42
2  27 6 0 0 42
2  28 4 0 0 42
0

0101000
-49 0 +44 0 *
Wi

0101000
-43 0 -42 0 +75 0 +48 0 *
Ve
1e-07
17 1.5 15.5
0 0

0101101
*
Ed
 1e-07 1 1 0
1  17 0 0 6.28318530717959
2  29 9 0 0 6.28318530717959
0

0101100
+40 0 -40 0 *
Wi

0101000
-39 0 *
Ve
1e-07
-14 1.5 -15.5
0 0

0101101
*
Ed
 1e-07 1 1 0
1  18 0 0 6.28318530717959
2  30 8 0 0 6.28318530717959
0

0101100
+37 0 -37 0 *
Wi

0101000
-36 0 *
Ve
1e-07
11 1.5 2.69422295812418e-15
0 0

0101101
*
Ed
 1e-07 1 1 0
1  19 0 0 6.28318530717959
2  31 10 0 0 6.28318530717959
2  32 13 0 0 6.28318530717959
0

0101100
+34 0 -34 0 *
Wi

0101000
-33 0 *
Ve
1e-07
-14 1.5 15.5
0 0

0101101
*
Ed
 1e-07 1 1 0
1  20 0 0 6.28318530717959
2  33 7 0 0 6.28318530717959
0

0101100
+31 0 -31 0 *
Wi

0101000
-30 0 *
Ve
1e-07
17 1.5 -15.5
0 0

0101101
*
Ed
 1e-07 1 1 0
1  21 0 0 6.28318530717959
2  34 12 0 0 6.28318530717959
0

0101100
+28 0 -28 0 *
Wi

0101000
-27 0 *
Fa
0  1e-07 4 0

0111000
+41 0 +38 0 +35 0 +32 0 +29 0 +26 0 *
Ed
 1e-07 1 1 0
1  22 0 0 3
2  35 6 0 0 3
2  36 5 0 0 3
0

0101000
-44 0 +71 0 *
Wi

0101000
-74 0 -43 0 +24 0 +70 0 *
Fa
0  1e-07 5 0

0101000
+23 0 *
Wi

0101000
-68 0 -47 0 +42 0 +24 0 *
Fa
0  1e-07 6 0

0111000
+21 0 *
Ed
 1e-07 1 1 0
1  23 0 0 3
3  37 38CN 7 0 0 3
0

0101000
-31 0 +65 0 *
Wi

0101000
+19 0 +64 0 -19 0 -30 0 *
Fa
0  1e-07 7 0

0101000
+18 0 *
Ed
 1e-07 1 1 0
1  24 0 0 3
3  39 40CN 8 0 0 3
0

0101000
-37 0 +62 0 *
Wi

0101000
+16 0 +61 0 -16 0 -36 0 *
Fa
0  1e-07 8 0

0101000
+15 0 *
Ed
 1e-07 1 1 0
1  25 0 0 3
3  41 42CN 9 0 0 3
0

0101000
-40 0 +59 0 *
Wi

0101000
+13 0 +58 0 -13 0 -39 0 *
Fa
0  1e-07 9 0

0111000
+12 0 *
Ed
 1e-07 1 1 0
1  26 0 0 3
3  43 44CN 10 0 0 3
0

0101000
-34 0 +56 0 *
Wi

0101000
+10 0 +55 0 -10 0 -33 0 *
Fa
0  1e-07 10 0

0101000
+9 0 *
Ed
 1e-07 1 1 0
1  27 0 0 3
3  45 46CN 12 0 0 3
0

0101000
-28 0 +53 0 *
Wi

0101000
+7 0 +52 0 -7 0 -27 0 *
Fa
0  1e-07 12 0

0101000
+6 0 *
Sh

0101100
-72 0 -50 0 +45 0 +25 0 -22 0 +20 0 -17 0 -14 0 -11 0 -8 0 
-5 0 *
So

0100000
+4 0 *
Co

0100000
+3 0 *
Co

1100000
+2 0 *

+1 0 